<svg width="240" height="179" viewBox="0 0 240 179" fill="none" xmlns="http://www.w3.org/2000/svg">
<path d="M79.795 33.8019L80.3117 32.9458L79.795 33.8019ZM230.219 146.195C230.603 145.798 230.592 145.165 230.195 144.781L223.726 138.524C223.33 138.14 222.696 138.15 222.312 138.547C221.928 138.944 221.939 139.577 222.336 139.961L228.086 145.523L222.524 151.274C222.14 151.67 222.15 152.304 222.547 152.688C222.944 153.072 223.577 153.061 223.961 152.664L230.219 146.195ZM111 96.0001L110.083 96.3996L111 96.0001ZM13.8547 26.1095C13.984 27.1011 13.984 27.1011 13.9841 27.1011C13.9844 27.101 13.9847 27.101 13.9853 27.1009C13.9864 27.1008 13.9881 27.1006 13.9905 27.1003C13.9954 27.0996 14.0028 27.0987 14.0129 27.0974C14.0331 27.0948 14.0636 27.091 14.1043 27.0859C14.1858 27.0758 14.3079 27.0608 14.4687 27.0418C14.7904 27.0038 15.2667 26.9496 15.8818 26.8852C17.112 26.7564 18.897 26.5869 21.1093 26.4251C25.5352 26.1014 31.6653 25.8088 38.4827 25.9325C52.1729 26.1808 68.4232 28.1077 79.2783 34.6581L80.3117 32.9458C68.9693 26.1013 52.2495 24.1819 38.5189 23.9328C31.6259 23.8077 25.433 24.1035 20.9634 24.4304C18.728 24.5939 16.9222 24.7653 15.6735 24.8961C15.0492 24.9614 14.564 25.0166 14.2341 25.0556C14.0691 25.0751 13.9429 25.0906 13.8574 25.1012C13.8147 25.1065 13.7822 25.1106 13.7601 25.1134C13.7491 25.1148 13.7406 25.1159 13.7349 25.1167C13.732 25.117 13.7297 25.1173 13.7282 25.1175C13.7274 25.1176 13.7267 25.1177 13.7263 25.1178C13.7258 25.1178 13.7255 25.1179 13.8547 26.1095ZM156.757 139.47C172.235 143.34 190.435 145.094 204.734 145.883C211.891 146.279 218.083 146.433 222.487 146.488C224.689 146.516 226.444 146.519 227.65 146.515C228.253 146.513 228.719 146.509 229.034 146.506C229.192 146.504 229.312 146.503 229.393 146.502C229.433 146.501 229.464 146.501 229.485 146.5C229.495 146.5 229.503 146.5 229.508 146.5C229.511 146.5 229.513 146.5 229.514 146.5C229.515 146.5 229.516 146.5 229.516 146.5C229.516 146.5 229.517 146.5 229.5 145.5C229.483 144.5 229.483 144.5 229.483 144.5C229.483 144.5 229.482 144.5 229.482 144.5C229.481 144.5 229.479 144.5 229.477 144.5C229.472 144.5 229.464 144.5 229.455 144.501C229.435 144.501 229.405 144.501 229.366 144.502C229.287 144.503 229.169 144.504 229.014 144.506C228.703 144.509 228.242 144.513 227.644 144.515C226.447 144.519 224.702 144.516 222.512 144.488C218.13 144.433 211.967 144.28 204.845 143.886C190.588 143.099 172.537 141.353 157.243 137.53L156.757 139.47ZM79.2783 34.6581C86.6271 39.0927 91.3264 43.1887 94.4799 47.2896C97.6254 51.3801 99.2746 55.5296 100.447 60.1448C102.781 69.3277 103.236 80.6907 110.083 96.3996L111.917 95.6005C105.145 80.0653 104.832 69.2812 102.386 59.6522C101.168 54.8615 99.4243 50.4386 96.0653 46.0704C92.7143 41.7126 87.7979 37.4633 80.3117 32.9458L79.2783 34.6581ZM110.083 96.3996C114.739 107.08 118.608 115.95 125.231 123.082C131.888 130.251 141.249 135.593 156.757 139.47L157.243 137.53C141.979 133.714 133.011 128.521 126.696 121.721C120.348 114.884 116.603 106.351 111.917 95.6005L110.083 96.3996Z" fill="#929292"/>
</svg>
