<svg width="86" height="65" viewBox="0 0 86 65" fill="none" xmlns="http://www.w3.org/2000/svg">
<path d="M7.55981 44.1187C7.92019 44.2041 8.40957 44.6448 8.55086 45.047L9.26752 46.7614C9.42929 47.0905 9.39857 47.7425 9.20609 48.0553L6.34557 52.6947C5.73333 53.69 5.86029 55.0997 6.68343 56.0138L9.10576 58.4147C9.94938 59.1581 11.438 59.2922 12.4086 58.7092L17.0853 55.8716C17.3781 55.6928 18.0068 55.6298 18.447 55.835L20.1731 56.5419C20.5212 56.6617 20.9656 57.1452 21.0516 57.5027L22.3354 62.792C22.6078 63.9133 23.6869 64.8355 24.8458 64.9411C24.8458 64.9411 25.5563 65.0061 26.6211 65.0061C27.6859 65.0061 28.3964 64.9411 28.3984 64.9411C28.9851 64.8724 29.5376 64.631 29.9847 64.248C30.4318 63.8649 30.7529 63.3578 30.9068 62.792L32.1927 57.5027C32.2787 57.1472 32.721 56.6617 33.1264 56.5216L34.8546 55.8106C35.1597 55.6623 35.8661 55.6928 36.1589 55.8716L40.8357 58.7092C41.2472 58.9591 41.7387 59.0911 42.2608 59.0911C42.9672 59.0911 43.6511 58.8453 44.1815 58.3761L46.6018 55.9731C46.9855 55.5239 47.2199 54.968 47.2731 54.3815C47.3262 53.7951 47.1954 53.2067 46.8987 52.6967L44.0381 48.0573C43.8457 47.7445 43.815 47.0925 44.0013 46.7066L44.7139 44.9942C44.8347 44.6489 45.322 44.2081 45.6824 44.1228L51.0144 42.8492C51.5848 42.696 52.0959 42.3769 52.482 41.9331C52.868 41.4893 53.1114 40.9411 53.1808 40.3589C53.1808 40.3589 53.2463 39.6541 53.2463 38.5978C53.2463 37.5416 53.1808 36.8367 53.1808 36.8347C53.1111 36.2526 52.8677 35.7045 52.4816 35.2607C52.0956 34.817 51.5846 34.4979 51.0144 34.3444L45.6844 33.0728C45.3241 32.9875 44.8347 32.5467 44.6934 32.1445L43.9767 30.4302C43.815 30.1011 43.8457 29.4491 44.0381 29.1362L46.8987 24.4969C47.5109 23.5016 47.384 22.0919 46.5608 21.1778L44.1385 18.7769C43.2928 18.0314 41.8021 17.8973 40.8357 18.4823L36.1589 21.32C35.8661 21.4967 35.2354 21.5638 34.7972 21.3566L33.0711 20.6497C32.723 20.5298 32.2807 20.0464 32.1947 19.6889L30.9088 14.3995C30.7543 13.8337 30.4327 13.3267 29.9853 12.9437C29.538 12.5607 28.9853 12.3193 28.3984 12.2505C28.3943 12.2525 27.6838 12.1875 26.619 12.1875C25.5543 12.1875 24.8438 12.2525 24.8417 12.2525C24.255 12.3216 23.7024 12.5631 23.2551 12.946C22.8078 13.329 22.4861 13.8359 22.3313 14.4016L21.0495 19.6869C20.9635 20.0444 20.5192 20.5298 20.1138 20.67L18.3856 21.3809C18.0784 21.5292 17.374 21.4967 17.0812 21.32L12.4065 18.4823C11.438 17.8973 9.9801 17.9989 9.06071 18.8155L6.64043 21.2184C6.25673 21.6677 6.02228 22.2236 5.96914 22.81C5.91599 23.3965 6.04675 23.9849 6.34352 24.4948L9.20405 29.1342C9.39652 29.447 9.42724 30.0991 9.2409 30.485L8.52833 32.1973C8.40752 32.5427 7.92019 32.9834 7.55981 33.0688L2.22781 34.3423C1.65742 34.4956 1.14631 34.8146 0.760236 35.2584C0.374161 35.7022 0.130787 36.2505 0.0614286 36.8327C0.0655238 36.8327 0 37.5375 0 38.5938C0 39.65 0.0655238 40.3548 0.0655238 40.3569C0.135149 40.9389 0.378618 41.4871 0.764652 41.9308C1.15069 42.3746 1.66165 42.6937 2.2319 42.8472L7.55981 44.1187ZM2.04762 38.5938C2.04762 37.6634 2.1029 37.0358 2.10495 37.0155C2.13758 36.8574 2.21038 36.7103 2.31646 36.588C2.42254 36.4657 2.55837 36.3723 2.71105 36.3167L8.04305 35.0431C9.0771 34.7953 10.1193 33.8569 10.4429 32.9164L11.1063 31.3178C11.5731 30.3692 11.5076 28.9758 10.9527 28.0739L8.09219 23.4366C7.955 23.2111 7.99391 22.7642 8.12905 22.6119L10.4654 20.2922C10.6517 20.1277 11.1268 20.087 11.3397 20.215L16.0165 23.0527C16.9031 23.5909 18.4224 23.6275 19.2271 23.2314L20.8407 22.5692C21.846 22.2259 22.792 21.192 23.0419 20.1642L24.3237 14.8769C24.3792 14.7249 24.4732 14.5897 24.5965 14.4841C24.7198 14.3784 24.8684 14.306 25.028 14.2736C25.0485 14.2736 25.6812 14.2188 26.619 14.2188C27.5569 14.2188 28.1896 14.2736 28.21 14.2756C28.3694 14.308 28.5177 14.3802 28.641 14.4854C28.7643 14.5907 28.8584 14.7254 28.9144 14.8769L30.1983 20.1642C30.4481 21.19 31.392 22.2259 32.3421 22.5469L33.9536 23.205C34.8894 23.66 36.3391 23.5889 37.2237 23.0527L41.8984 20.215C42.1113 20.087 42.615 20.1541 42.7297 20.2516L45.0681 22.5692C45.2442 22.7662 45.2831 23.2111 45.1459 23.4366L42.2854 28.0759C41.7305 28.9758 41.665 30.3713 42.1052 31.2609L42.7727 32.8616C43.1188 33.8589 44.161 34.7973 45.1971 35.0452L50.5271 36.3167C50.6802 36.3718 50.8166 36.465 50.923 36.5874C51.0295 36.7097 51.1026 36.8571 51.1352 37.0155C51.1352 37.0358 51.1905 37.6634 51.1905 38.5938C51.1905 39.5241 51.1352 40.1517 51.1331 40.172C51.1005 40.3301 51.0277 40.4772 50.9216 40.5995C50.8156 40.7218 50.6797 40.8152 50.5271 40.8708L45.195 42.1444C44.161 42.3922 43.1188 43.3306 42.7952 44.2711L42.1318 45.8697C41.665 46.8183 41.7305 48.2117 42.2854 49.1136L45.1459 53.7509C45.2831 53.9764 45.2442 54.4233 45.1091 54.5756L42.7727 56.8953C42.6247 57.0051 42.4435 57.0616 42.2588 57.0558C42.134 57.0598 42.0104 57.0311 41.9004 56.9725L37.2237 54.1348C36.3391 53.5986 34.8198 53.56 34.013 53.9561L32.3995 54.6183C31.3941 54.9616 30.4481 55.9975 30.2003 57.0233L28.9165 62.3106C28.8609 62.4626 28.767 62.5978 28.6436 62.7034C28.5203 62.8091 28.3717 62.8815 28.2121 62.9139C28.1896 62.9139 27.5569 62.9688 26.619 62.9688C25.6812 62.9688 25.0485 62.9139 25.028 62.9119C24.8687 62.8795 24.7204 62.8073 24.5971 62.7021C24.4738 62.5968 24.3797 62.4621 24.3237 62.3106L23.0398 57.0213C22.79 55.9955 21.844 54.9616 20.896 54.6406L19.2845 53.9825C18.8262 53.7712 18.3257 53.6656 17.8204 53.6737C17.1468 53.6737 16.5059 53.8383 16.0144 54.1369L11.3397 56.9745C11.1268 57.1025 10.621 57.0334 10.5084 56.938L8.17 54.6183C7.99391 54.4212 7.955 53.9764 8.09219 53.7509L10.9527 49.1116C11.5076 48.2117 11.5731 46.8162 11.1329 45.9266L10.4654 44.3259C10.1193 43.3286 9.0771 42.3902 8.041 42.1423L2.71105 40.8708C2.55788 40.8157 2.42154 40.7225 2.31506 40.6001C2.20858 40.4778 2.13553 40.3304 2.1029 40.172C2.1029 40.1517 2.04762 39.5241 2.04762 38.5938Z" fill="#810BB9"/>
<path d="M26.6191 49.7656C32.8295 49.7656 37.881 44.7545 37.881 38.5938C37.881 32.433 32.8295 27.4219 26.6191 27.4219C20.4087 27.4219 15.3572 32.433 15.3572 38.5938C15.3572 44.7545 20.4087 49.7656 26.6191 49.7656ZM26.6191 29.4531C31.6992 29.4531 35.8334 33.5542 35.8334 38.5938C35.8334 43.6333 31.6992 47.7344 26.6191 47.7344C21.5389 47.7344 17.4048 43.6333 17.4048 38.5938C17.4048 33.5542 21.5389 29.4531 26.6191 29.4531Z" fill="#810BB9"/>
<path d="M56.2622 10.794C56.1247 10.947 55.9367 11.0464 55.7319 11.0743L51.9213 11.0377C51.451 11.0501 50.9951 11.2007 50.6112 11.4705C50.2273 11.7402 49.9329 12.117 49.7652 12.553C49.7652 12.553 49.5972 13.0263 49.413 13.7515C49.2287 14.4766 49.1509 14.9722 49.1509 14.9722C49.0075 15.8883 49.5215 16.9019 50.3467 17.3305L53.7068 19.0774C53.8869 19.2128 54.0084 19.411 54.0467 19.6319L54.2372 20.9218C54.2492 21.1255 54.1883 21.327 54.0651 21.4905L51.3582 24.123C50.6804 24.7811 50.5023 25.9065 50.9692 26.7901L52.1957 28.8213C52.7137 29.5769 53.8358 29.9629 54.7163 29.6907L58.4511 28.5572C58.6539 28.5572 58.8566 28.6344 58.9712 28.7258L60.0258 29.4977C60.1792 29.6348 60.2793 29.821 60.3083 30.0238L60.2715 33.7857C60.2633 34.7119 60.9185 35.6402 61.799 35.9449C61.799 35.9449 62.2761 36.1115 63.0071 36.2943C63.7381 36.4771 64.2377 36.5543 64.2377 36.5543C64.291 36.5624 64.5039 36.5786 64.5571 36.5786C64.977 36.5735 65.3881 36.4589 65.7493 36.2464C66.1105 36.0339 66.409 35.731 66.615 35.368L68.376 32.0347C68.5124 31.8561 68.7122 31.7355 68.935 31.6975L70.2925 31.5026C70.4973 31.5026 70.7389 31.6082 70.8065 31.6772L73.4602 34.3625C74.1052 35.0166 75.1925 35.2502 76.1487 34.7485L78.1943 33.5318C78.9765 33.0036 79.3553 31.9271 79.0727 31.0313L77.9424 27.4421C77.9122 27.219 77.9694 26.9929 78.1021 26.8104L78.8802 25.7643C79.0177 25.6112 79.2058 25.5118 79.4106 25.484L83.2212 25.5205C83.6914 25.5081 84.1474 25.3575 84.5313 25.0877C84.9151 24.818 85.2096 24.4412 85.3773 24.0052C85.3773 24.0052 85.5452 23.5319 85.7295 22.8068C85.9138 22.0816 85.9916 21.586 85.9916 21.586C86.0524 21.1194 85.971 20.6454 85.7579 20.2251C85.5448 19.8048 85.2097 19.4574 84.7958 19.2277L81.4357 17.4808C81.2556 17.3455 81.134 17.1472 81.0958 16.9263L80.9074 15.6405C80.8953 15.4367 80.9562 15.2353 81.0794 15.0718L83.7863 12.4393C84.4641 11.7811 84.6422 10.6558 84.1754 9.77224L82.9488 7.74099C82.4308 6.98739 81.3108 6.59739 80.4282 6.86958L76.6913 8.00302C76.5044 8.00276 76.3223 7.94374 76.1712 7.83442L75.1167 7.06255C74.9632 6.92548 74.8632 6.73926 74.8341 6.53645L74.871 2.77458C74.8631 2.30444 74.7133 1.84744 74.4411 1.46256C74.1688 1.07768 73.7865 0.782587 73.3435 0.615361C73.3435 0.615361 72.8664 0.448799 72.1354 0.265986C71.4044 0.0831738 70.9048 0.00598633 70.9048 0.00598633C70.7985 -0.00449158 70.692 -0.0119426 70.5853 -0.0163574C70.1655 -0.0111692 69.7543 0.103404 69.3932 0.315881C69.032 0.528357 68.7334 0.831272 68.5275 1.19427L66.7665 4.52755C66.6301 4.70622 66.4302 4.82675 66.2075 4.86474L64.85 5.0577C64.6645 5.05372 64.4849 4.99268 64.336 4.88302L61.6823 2.19771C61.3354 1.85536 60.8866 1.63295 60.4024 1.56344C59.9182 1.49393 59.4242 1.581 58.9938 1.81177L56.9461 3.02646C56.164 3.55458 55.7851 4.63114 56.0677 5.52692L57.198 9.11614C57.2282 9.33923 57.1711 9.56532 57.0383 9.74786L56.2622 10.794ZM57.9413 11.9558L58.6436 11.0093C59.1924 10.3654 59.4053 9.3152 59.1514 8.51286L58.0232 4.92567C58.013 4.8688 58.058 4.74083 58.0478 4.7388L59.9889 3.58505L60.2203 3.61958L62.8761 6.30489C63.347 6.78021 64.1231 7.08895 64.852 7.08895C64.9922 7.09115 65.1323 7.07821 65.2697 7.05036L66.4471 6.8777C66.8893 6.82449 67.3128 6.66926 67.6837 6.42447C68.0546 6.17967 68.3625 5.8521 68.5828 5.46802L70.3417 2.13677C70.405 2.06632 70.4927 2.02209 70.5874 2.01286C70.6099 2.01489 71.0276 2.08396 71.6378 2.23427C72.246 2.38661 72.6473 2.52271 72.6657 2.53083C72.7292 2.55724 72.8213 2.68927 72.8254 2.75427L72.7886 6.51614C72.7804 7.35708 73.2902 8.30161 73.9496 8.72817L74.9017 9.42489C75.5344 9.95505 76.6197 10.1785 77.4182 9.92864L81.0507 8.80739C81.1367 8.80739 81.2329 8.8602 81.2207 8.8338L82.3837 10.7594C82.4062 10.8122 82.3837 10.9463 82.3489 10.989L79.6419 13.6235C79.0379 14.2146 78.7246 15.2383 78.8905 15.998L79.0625 17.166C79.1362 18.0029 79.7341 18.8946 80.4856 19.2846L83.8437 21.0294C83.914 21.0927 83.9585 21.1795 83.9686 21.2732C83.9085 21.6234 83.8341 21.971 83.7454 22.3152C83.6605 22.6592 83.5607 22.9994 83.4464 23.3349C83.4198 23.3979 83.2867 23.4893 83.2212 23.4933L79.4085 23.4568C78.5669 23.4568 77.625 23.9625 77.1991 24.6085L76.4989 25.553C76.2224 25.9003 76.0324 26.3073 75.9441 26.741C75.8559 27.1747 75.872 27.623 75.991 28.0494L77.1193 31.6366C77.1295 31.6915 77.0845 31.8215 77.0947 31.8235L75.1536 32.9772L74.9222 32.9427L72.2664 30.2574C71.7955 29.7821 71.0194 29.4733 70.2905 29.4733C70.1502 29.4711 70.0102 29.4841 69.8728 29.5119L68.6954 29.6846C68.2532 29.7378 67.8296 29.893 67.4588 30.1378C67.0879 30.3826 66.78 30.7102 66.5597 31.0943L64.8008 34.4255C64.7375 34.496 64.6498 34.5402 64.5551 34.5494C64.2021 34.4899 63.8516 34.416 63.5047 34.328C63.1579 34.2438 62.815 34.1448 62.4768 34.0315C62.4133 34.005 62.3211 33.873 62.317 33.808L62.3539 30.0461C62.3621 29.2052 61.8522 28.2607 61.1929 27.8341L60.2408 27.1374C59.8904 26.863 59.4798 26.6744 59.0422 26.5868C58.6046 26.4993 58.1524 26.5154 57.7222 26.6336L54.0897 27.7549C54.0017 27.7549 53.9054 27.7082 53.9198 27.7285L52.7567 25.8029C52.7342 25.75 52.7567 25.616 52.7915 25.5733L55.4985 22.9388C56.1025 22.3477 56.4158 21.324 56.25 20.5643L56.078 19.3983C56.0242 18.9594 55.8675 18.5391 55.6204 18.1712C55.3732 17.8032 55.0425 17.4979 54.6549 17.2797L51.2968 15.5349C51.2264 15.4716 51.1819 15.3848 51.1719 15.2911C51.1739 15.2688 51.2435 14.8544 51.3951 14.2491C51.5486 13.6458 51.6858 13.2477 51.694 13.2294C51.7206 13.1665 51.8537 13.075 51.9192 13.071L55.7319 13.1075C56.5735 13.1075 57.5154 12.6018 57.9413 11.9558Z" fill="#810BB9"/>
<path d="M67.5716 24.375C70.9583 24.375 73.7144 21.6409 73.7144 18.2812C73.7144 14.9216 70.9583 12.1875 67.5716 12.1875C64.1848 12.1875 61.4287 14.9216 61.4287 18.2812C61.4287 21.6409 64.1848 24.375 67.5716 24.375ZM67.5716 14.2188C69.8301 14.2188 71.6668 16.0408 71.6668 18.2812C71.6668 20.5217 69.8301 22.3438 67.5716 22.3438C65.313 22.3438 63.4763 20.5217 63.4763 18.2812C63.4763 16.0408 65.313 14.2188 67.5716 14.2188Z" fill="#810BB9"/>
</svg>
